/* XPM */
static char * bottom_left_active_xpm[] = {
"25 25 6 1",
" 	c None",
".	c #989898",
"+	c #FFFFFF",
"@	c #F8F8F8",
"#	c #888888",
"$	c #606060",
".+@#                     ",
".+@#                     ",
".+@#                     ",
".+@#                     ",
".+@#                     ",
".+@#                     ",
".+@#                     ",
".+@#                     ",
".+@#                     ",
".+@#                     ",
".+@#                     ",
".+@#                     ",
".+@#                     ",
".+@#                     ",
".+@#                     ",
".+@#                     ",
".+@#                     ",
".+@#                     ",
".+@#                     ",
".+@#                     ",
".+@#                     ",
".+@#+++++++++++++++++++++",
".+@@@@@@@@@@@@@@@@@@@@@@@",
".########################",
"$$$$$$$$$$$$$$$$$$$$$$$$$"};
